<?xml version="1.0" encoding="UTF-8"?>
<svg width="33px" height="33px" viewBox="0 0 33 33" version="1.1" xmlns="http://www.w3.org/2000/svg" xmlns:xlink="http://www.w3.org/1999/xlink">
    <!-- Generator: Sketch 63.1 (92452) - https://sketch.com -->
    <title>ICONS / YOTUBE / WHITEOUTLINE</title>
    <desc>Created with Sketch.</desc>
    <g id="Symbols" stroke="none" stroke-width="1" fill="none" fill-rule="evenodd">
        <g id="FOOTER" transform="translate(-1239.000000, -67.000000)">
            <g id="ICONS-/-GP-/-WHITEOUTLINE" transform="translate(1239.000000, 67.000000)">
                <circle id="Oval-2" stroke="#FFFFFF" stroke-width="1" cx="16.5" cy="16.5" r="16"></circle>
                <path d="M7.01617931,15.7249153 C7.06831724,12.6462034 9.94748966,9.94986441 13.0794897,10.0525763 C14.5799034,9.9840339 15.9905241,10.6261356 17.1398345,11.5277627 C16.6494897,12.0754915 16.1413517,12.6032881 15.5986621,13.0971186 C14.2172138,12.1582712 12.2521103,11.8902034 10.8706621,12.9742712 C8.89397241,14.3180678 8.80417931,17.4911525 10.7051448,18.937661 C12.5539724,20.5867458 16.0486621,19.7678983 16.5592828,17.2428136 C15.4012828,17.2257288 14.2403862,17.2428136 13.0821793,17.2057966 C13.0794897,16.526678 13.0765931,15.8475593 13.0794897,15.1684407 C15.0154207,15.1627458 16.9511448,15.1598983 18.8899724,15.1741356 C19.0062483,16.7719661 18.7914897,18.4725085 17.7928,19.7935254 C16.2808,21.8849831 13.2448,22.4957627 10.8764552,21.5996271 C8.49921379,20.7095932 6.81590345,18.2414576 7.01617931,15.7249153" id="Fill-4" fill="#FFFFFF" fill-rule="evenodd"></path>
                <path d="M22.6769808,14.1815741 L24.2821731,14.1815741 C24.2846731,14.6986111 24.2875577,15.2182407 24.29275,15.7350926 C24.8296731,15.7402778 25.3692885,15.7402778 25.9062115,15.745463 L25.9062115,17.2912037 C25.3692885,17.2963889 24.8323654,17.2989815 24.29275,17.3041667 C24.2875577,17.8237963 24.2846731,18.3406481 24.2821731,18.8576852 L22.6740962,18.8576852 C22.6687115,18.3406481 22.6687115,17.8237963 22.6635192,17.3067593 C22.1265962,17.3015741 21.5869808,17.2963889 21.0500577,17.2912037 L21.0500577,15.745463 C21.5869808,15.7402778 22.1239038,15.7376852 22.6635192,15.7350926 C22.6660192,15.215463 22.6715962,14.6986111 22.6769808,14.1815741" id="Fill-7" fill="#FFFFFF" fill-rule="evenodd"></path>
            </g>
        </g>
    </g>
</svg>