<?xml version="1.0" encoding="UTF-8"?>
<svg width="33px" height="33px" viewBox="0 0 33 33" version="1.1" xmlns="http://www.w3.org/2000/svg" xmlns:xlink="http://www.w3.org/1999/xlink">
    <desc>Created with Sketch.</desc>
    <g id="ICONS-/-YOTUBE-/-WHITEOUTLINE" stroke="none" stroke-width="1" fill="none" fill-rule="evenodd">
        <circle id="Oval-2" stroke="#FFFFFF" cx="16.5" cy="16.5" r="16"></circle>
        <path d="" id="Fill-1" stroke="#979797" fill="#FFFFFF"></path>
        <g id="youtube" transform="translate(8.000000, 7.000000)" fill="#FFFFFF">
            <path d="M13.5533788,7.4028 L12.5076212,7.4028 L12.5076212,6.8153 C12.1109545,7.2563 11.7745606,7.4788 11.4082879,7.4788 C11.0868333,7.4788 10.8637727,7.3318 10.7519848,7.0658 C10.6839848,6.9043 10.6355606,6.6518 10.6355606,6.2808 L10.6355606,2.0063 L11.6818333,2.0063 L11.6818333,6.0138 L11.6818333,6.3878 C11.7060455,6.5383 11.7714697,6.5923 11.9048939,6.5923 C12.1042576,6.5923 12.2861061,6.4233 12.5076212,6.1208 L12.5076212,2.0063 L13.5533788,2.0063 L13.5533788,7.4028 Z" id="Fill-4"></path>
            <path d="M9.86484242,3.7695 C9.86484242,3.193 9.74532727,2.7595 9.5346303,2.4875 C9.25593333,2.118 8.81908485,1.9675 8.3786303,1.9675 C7.87996364,1.9675 7.50081212,2.118 7.2226303,2.4875 C7.00832727,2.7595 6.89293333,3.1975 6.89293333,3.774 L6.89190303,5.693 C6.89190303,6.2665 6.99441818,6.6625 7.20872121,6.9325 C7.48690303,7.3005 7.93817576,7.4955 8.3786303,7.4955 C8.81908485,7.4955 9.27808485,7.3005 9.55678182,6.9325 C9.76747879,6.6625 9.86484242,6.2665 9.86484242,5.693 L9.86484242,3.7695 Z M8.81908485,5.8005 C8.87369091,6.334 8.70317576,6.5995 8.3786303,6.5995 C8.0535697,6.5995 7.88305455,6.334 7.93817576,5.8005 L7.93817576,3.6625 C7.88305455,3.1285 8.0535697,2.878 8.3786303,2.878 C8.70317576,2.878 8.87472121,3.1285 8.8196,3.6625 L8.81908485,5.8005 Z" id="Fill-6"></path>
            <path d="M5.73605758,4.4643 L5.73605758,7.4028 L4.63517879,7.4028 L4.63517879,4.4643 C4.63517879,4.4643 3.49411818,0.8613 3.25869394,0.1893 L4.41469394,0.1893 L5.18742121,3.0043 L5.95602727,0.1893 L7.11254242,0.1893 L5.73605758,4.4643 Z" id="Fill-8"></path>
            <path d="M10.3286333,13.2695 C10.1643,13.2695 9.97678485,13.3535 9.80987576,13.513 L9.80884545,16.754 C9.97523939,16.9155 10.1643,16.9975 10.3286333,16.9975 C10.6160879,16.9975 10.7459061,16.7925 10.7459061,16.2585 L10.7459061,13.9605 C10.7459061,13.4265 10.6160879,13.2695 10.3286333,13.2695" id="Fill-10"></path>
            <path d="M14.4340303,13.91205 C14.4340303,13.41805 14.3026667,13.27005 13.9719394,13.27005 C13.6391515,13.27005 13.498,13.40555 13.498,13.90505 L13.498,14.49655 L14.4340303,14.49555 L14.4340303,13.91205 Z" id="Fill-12"></path>
            <path d="M16.6933303,11.1772 C16.6933303,11.1772 16.532603,10.0832 16.039603,9.6012 C15.4147242,8.9682 14.7141182,8.9647 14.3926636,8.9277 C12.0925121,8.7677 8.64202727,8.7677 8.64202727,8.7677 L8.63481515,8.7677 C8.63481515,8.7677 5.18381515,8.7677 2.88366364,8.9277 C2.56220909,8.9647 1.86160303,8.9682 1.23672424,9.6012 C0.743724242,10.0832 0.583512121,11.1772 0.583512121,11.1772 C0.583512121,11.1772 0.419178788,12.4627 0.419178788,13.7482 L0.419178788,14.9532 C0.419178788,16.2382 0.583512121,17.5237 0.583512121,17.5237 C0.583512121,17.5237 0.743724242,18.6187 1.23672424,19.1007 C1.86160303,19.7327 2.6832697,19.7127 3.04902727,19.7787 C4.36420909,19.9007 8.63842121,19.9387 8.63842121,19.9387 C8.63842121,19.9387 12.0925121,19.9342 14.3926636,19.7727 C14.7141182,19.7357 15.4147242,19.7327 16.039603,19.1007 C16.532603,18.6187 16.6933303,17.5237 16.6933303,17.5237 C16.6933303,17.5237 16.8576636,16.2382 16.8576636,14.9532 L16.8576636,13.7482 C16.8576636,12.4627 16.6933303,11.1772 16.6933303,11.1772 L16.6933303,11.1772 Z M4.02936061,17.8082 L2.92848182,17.8082 L2.92848182,11.6637 L1.77248182,11.6637 L1.77248182,10.6492 L5.24048182,10.6477 L5.24048182,11.6637 L4.02936061,11.6637 L4.02936061,17.8082 Z M7.99293636,17.8082 L6.94717879,17.8082 L6.94717879,17.2202 C6.55051212,17.6617 6.21463333,17.8837 5.84784545,17.8837 C5.52639091,17.8837 5.3033303,17.7367 5.19154242,17.4712 C5.12354242,17.3092 5.07563333,17.0567 5.07563333,16.6862 L5.07563333,12.4647 L6.12139091,12.4647 L6.12139091,16.4182 L6.12139091,16.7922 C6.14560303,16.9422 6.21154242,16.9977 6.34445152,16.9977 C6.5443303,16.9977 6.72566364,16.8287 6.94717879,16.5252 L6.94717879,12.4647 L7.99293636,12.4647 L7.99293636,17.8082 Z M11.7916636,16.2052 C11.7916636,16.6992 11.7478758,17.0472 11.6814212,17.2732 C11.5485121,17.6702 11.2584818,17.8767 10.8618152,17.8767 C10.5073909,17.8767 10.1442091,17.6697 9.81142121,17.2702 L9.80987576,17.8082 L8.81872424,17.8082 L8.81872424,10.6477 L9.80987576,10.6477 L9.80884545,12.9822 C10.1303,12.5982 10.4950273,12.3787 10.8618152,12.3787 C11.2584818,12.3787 11.5253303,12.6017 11.6582394,13.0012 C11.7246939,13.2157 11.7916636,13.5622 11.7916636,14.0672 L11.7916636,16.2052 Z M13.9815727,16.9977 C14.2267848,16.9977 14.3694818,16.8682 14.4266636,16.6092 C14.4359364,16.5567 14.4338758,16.3262 14.4338758,15.9377 L15.4801485,15.9377 L15.4801485,16.0887 C15.4801485,16.4007 15.4533606,16.6217 15.444603,16.7182 C15.4111182,16.9332 15.3328152,17.1267 15.2112394,17.2977 C14.9356333,17.6857 14.526603,17.8767 14.0063,17.8767 C13.4844515,17.8767 13.0877848,17.6942 12.7998152,17.3302 C12.5880879,17.0627 12.4520879,16.6657 12.4520879,16.0982 L12.4520879,14.2282 C12.4520879,13.6577 12.5757242,13.2157 12.7874515,12.9457 C13.0759364,12.5812 13.472603,12.3877 13.9815727,12.3877 C14.4812697,12.3877 14.8779364,12.5812 15.1576636,12.9457 C15.3657848,13.2157 15.4816939,13.6332 15.4816939,14.2047 L15.4816939,15.2962 L13.4983606,15.2962 L13.4983606,16.2557 C13.4947545,16.7492 13.638997,16.9977 13.9815727,16.9977 L13.9815727,16.9977 Z" id="Fill-14"></path>
        </g>
    </g>
</svg>
