<?xml version="1.0" encoding="UTF-8"?>
<svg width="20px" height="24px" viewBox="0 0 20 24" version="1.1" xmlns="http://www.w3.org/2000/svg" xmlns:xlink="http://www.w3.org/1999/xlink">
    <!-- Generator: Sketch 63.1 (92452) - https://sketch.com -->
    <title>Account</title>
    <desc>Created with Sketch.</desc>
    <g id="Symbols" stroke="none" stroke-width="1" fill="none" fill-rule="evenodd">
        <g id="ORLANDO-HEADER" transform="translate(-1173.000000, -16.000000)" fill="#696868">
            <g id="Account" transform="translate(1173.000000, 16.000000)">
                <path d="M9.65517241,11.4285714 C12.7586207,11.4285714 15.3103448,8.84353741 15.3103448,5.71428571 C15.3103448,2.58503401 12.7586207,7.10542736e-15 9.65517241,7.10542736e-15 C6.55172414,7.10542736e-15 4,2.58503401 4,5.71428571 C4,8.84353741 6.55172414,11.4285714 9.65517241,11.4285714 L9.65517241,11.4285714 Z M9.65517241,2.17687075 C11.5862069,2.17687075 13.1724138,3.7414966 13.1724138,5.71428571 C13.1724138,7.68707483 11.5862069,9.25170068 9.65517241,9.25170068 C7.72413793,9.25170068 6.13793103,7.68707483 6.13793103,5.71428571 C6.13793103,3.7414966 7.72413793,2.17687075 9.65517241,2.17687075 L9.65517241,2.17687075 Z" id="Shape"></path>
                <path d="M9.65517241,12.9931973 C4.34482759,12.9931973 -7.99360578e-14,17.3469388 -7.99360578e-14,22.7210884 L-7.99360578e-14,23.8095238 L19.3103448,23.8095238 L19.3103448,22.7210884 C19.3103448,17.3469388 14.9655172,12.9931973 9.65517241,12.9931973 L9.65517241,12.9931973 Z M2.27586207,21.6326531 C2.82758621,17.9591837 5.93103448,15.170068 9.65517241,15.170068 C13.4482759,15.170068 16.5517241,17.9591837 17.0344828,21.6326531 L2.27586207,21.6326531 L2.27586207,21.6326531 Z" id="Shape"></path>
            </g>
        </g>
    </g>
</svg>