<?xml version="1.0" encoding="UTF-8"?>
<svg width="23px" height="23px" viewBox="0 0 23 23" version="1.1" xmlns="http://www.w3.org/2000/svg" xmlns:xlink="http://www.w3.org/1999/xlink">
    <!-- Generator: Sketch 63.1 (92452) - https://sketch.com -->
    <title>Search</title>
    <desc>Created with Sketch.</desc>
    <g id="Symbols" stroke="none" stroke-width="1" fill="none" fill-rule="evenodd">
        <g id="BANNER" transform="translate(-923.000000, -230.000000)" fill="#FFFFFF" fill-rule="nonzero" stroke="#FFFFFF" stroke-width="2">
            <g id="Search" transform="translate(480.000000, 220.000000)">
                <path d="M464,30.3 L458,24.3 C459.2,22.9 460,21 460,19 C460,14.6 456.4,11 452,11 C447.6,11 444,14.6 444,19 C444,23.4 447.6,27 452,27 C454,27 455.9,26.2 457.3,25 L463.3,31 L464,30.3 L464,30.3 Z M445,19 C445,15.1 448.1,12 452,12 C455.9,12 459,15.1 459,19 C459,22.9 455.9,26 452,26 C448.1,26 445,22.9 445,19 L445,19 Z"></path>
            </g>
        </g>
    </g>
</svg>