<?xml version="1.0" encoding="UTF-8"?>
<svg width="33px" height="33px" viewBox="0 0 33 33" version="1.1" xmlns="http://www.w3.org/2000/svg" xmlns:xlink="http://www.w3.org/1999/xlink">
    <!-- Generator: Sketch 63.1 (92452) - https://sketch.com -->
    <title>ICONS / TWITTER / WHITEOUTLINE</title>
    <desc>Created with Sketch.</desc>
    <g id="Symbols" stroke="none" stroke-width="1" fill="none" fill-rule="evenodd">
        <g id="FOOTER" transform="translate(-1191.000000, -67.000000)">
            <g id="ICONS-/-TWITTER-/-WHITEOUTLINE" transform="translate(1191.000000, 67.000000)">
                <g id="Group-5">
                    <circle id="Oval-2-Copy" stroke="#FFFFFF" cx="16.5" cy="16.5" r="16"></circle>
                    <path d="M24.735727,11.8405237 C24.122313,12.1069987 23.4636253,12.2881321 22.7712042,12.3691196 C23.4778288,11.9537321 24.0202253,11.2962529 24.2750007,10.5125029 C23.6145375,10.8965404 22.8821691,11.1760779 22.1036393,11.3267321 C21.4804604,10.6744779 20.5909656,10.2669279 19.6073726,10.2669279 C17.718306,10.2669279 16.1878779,11.7691154 16.1878779,13.6231196 C16.1878779,13.8861112 16.2171726,14.1421362 16.2757621,14.3877112 C13.4332849,14.2475071 10.9139375,12.9116487 9.22727088,10.8808654 C8.93254807,11.3763696 8.7638814,11.9537321 8.7638814,12.5685404 C8.7638814,13.7328446 9.36753053,14.7604279 10.2854323,15.3621737 C9.72439368,15.3447571 9.19708842,15.1932321 8.73636211,14.9424321 L8.73636211,14.9842321 C8.73636211,16.6100779 9.91525333,17.9668362 11.4794147,18.2751112 C11.1926814,18.3517446 10.8908568,18.3926737 10.5783796,18.3926737 C10.3582253,18.3926737 10.1442849,18.3717737 9.93478316,18.3325862 C10.3706533,19.6658321 11.6329902,20.6368112 13.1296849,20.6638071 C11.9596709,21.5633779 10.4851691,22.1006821 8.88283579,22.1006821 C8.60675509,22.1006821 8.33422526,22.0850071 8.06702175,22.0527862 C9.57969544,23.0054779 11.3782147,23.5610696 13.3090042,23.5610696 C19.5993832,23.5610696 23.0392954,18.4475362 23.0392954,14.0115112 C23.0392954,13.8660821 23.0357446,13.7215237 23.0295305,13.5778362 C23.6979832,13.1049737 24.2776639,12.5136779 24.735727,11.8405237" id="Fill-1" fill="#FFFFFF"></path>
                </g>
            </g>
        </g>
    </g>
</svg>